<svg version="1.2" xmlns="http://www.w3.org/2000/svg" viewBox="0 0 1096 195" width="1096" height="195">
	<title>just grabbing the title dont mind meeeee w</title>
	<style>
		.s0 { fill: #ffffff } 
	</style>
	<path id="Path 0" fill-rule="evenodd" class="s0" d="m874.5 3.5v40l-57.5 0.5v11.5h3.8c2 0 14.2 0.2 50.2 0.5v17c0 14.2-0.2 17.1-1.5 17.5-0.8 0.3-13 0.5-52.5 0.5v13l58.5 0.5 0.5 38.5-2.3 0.4c-1.2 0.3-20.7 0.8-43.2 1.1-22.5 0.4-43 0.7-50 1l-0.5-139.5 2.3-0.5c1.2-0.3 12.3-0.9 24.7-1.4 12.4-0.4 32.6-0.8 67.5-0.6zm58-0.1c9.3 0.3 13.7 1 19.5 2.9 4.1 1.4 10.4 4.2 14 6.3 3.6 2.1 8.9 6.1 17.2 13.9l-9.1 15.3c-5 8.3-9.3 15.2-9.6 15.2-0.3 0-2.6-1.8-5.2-3.9-2.7-2.2-6.6-4.9-8.8-6.1-2.2-1.3-6.9-3.1-10.5-4.1-3.6-1.1-7.9-1.9-9.5-1.9-1.6 0-3.8 0.8-4.8 1.8-1 0.9-1.8 2.5-1.7 3.4 0 1 1.2 2.7 2.8 3.8 1.5 1.2 7.7 3.7 13.7 5.6 6 2 14.4 5.3 18.5 7.5 4.1 2.1 9.8 5.8 12.5 8.2 2.8 2.5 6.4 7 8.1 10.3 1.8 3.2 3.7 8.3 4.3 11.1 0.6 2.9 1.1 8.5 1.1 12.3 0 3.8-0.5 9.4-1.2 12.2-0.6 2.9-1.9 7.1-2.9 9.3-0.9 2.2-3.9 6.4-6.6 9.3-3.1 3.4-7 6.4-10.8 8.2-3.3 1.6-9.6 3.4-14 4.1-6.4 1-10 1-18 0-5.5-0.7-12.9-2.2-16.5-3.3-3.6-1.1-9.9-3.7-14-5.9-4.1-2.1-10.5-6.3-14.2-9.4-3.8-3-6.8-6.1-6.8-6.8 0-0.6 4.3-7.6 9.5-15.5 5.2-7.8 9.8-14.2 10.3-14.2 0.4 0 3.6 2.2 7.2 5 3.6 2.7 9.8 6.3 13.8 8 4.9 2 9.7 3.2 15 3.6 5.6 0.4 8.2 0.2 9.6-0.8 1.4-1 1.7-2 1.2-4.1-0.4-2-1.9-3.3-5.8-5.1-2.9-1.4-8-3.3-11.3-4.2-3.3-0.9-10.5-3.8-16-6.4-6.4-3-11.9-6.4-15.4-9.6-3.4-3.2-6.4-7.2-8.5-11.4-3-6.3-3.1-7-3.1-19.5 0-11 0.4-13.9 2.2-18.5 1.2-3 4.2-8.2 6.7-11.5 2.5-3.3 6.2-7.1 8.2-8.5 2.1-1.4 6.7-3.5 10.3-4.8 5.8-2 8-2.2 18.6-1.8zm60 7.2c1.1 0.2 4.7 0.6 8 0.8 3.3 0.3 8.7 1 12 1.6 3.3 0.5 8.7 1.3 12 1.6 3.3 0.3 6.2 0.8 6.5 0.9 0.3 0.2 6.1 1.3 13 2.5 6.9 1.1 14.1 2.3 16 2.6 1.9 0.4 9.1 1.8 28.5 6l0.3 20.2c0.2 18.7 0.1 20.2-1.5 20.2-1 0-7.2-1.1-13.8-2.5-6.6-1.4-12.8-2.5-13.7-2.5-1.7 0-1.8 3-1.8 98l-5.8-0.6c-3.1-0.3-9.3-1.1-13.7-1.9-4.4-0.8-10.3-1.8-18-3l-0.5-99-7.7-1.2c-4.3-0.7-10.5-1.5-13.8-1.8-3.3-0.4-7-0.8-8.3-1.1-2.2-0.4-2.2-0.5-2.4-20.3-0.2-16.7 0-20 1.2-20.4 0.8-0.3 2.4-0.3 3.5-0.1zm-232.3-4.4c1.6-0.1 3.5 0 4.3 0.3 1.3 0.4 1.5 6.1 1.5 43.3 0 33.9-0.3 44.5-1.5 51.7-0.9 5-2.5 11.7-3.6 15-1.1 3.3-3.3 8.2-4.7 10.9-1.5 2.7-5.4 7.4-8.7 10.5-3.3 3.1-8.9 7.1-12.5 8.9-3.6 1.7-9.4 3.9-13 4.8-4.8 1.2-9.8 1.5-19 1.3-11.5-0.4-13-0.7-19-3.5-3.6-1.7-8.3-4.6-10.4-6.5-2.2-1.9-5.4-5.7-7.1-8.4-1.7-2.8-3.9-7-4.8-9.5-0.9-2.5-2.4-8.3-3.3-13-1.4-7-1.8-16.2-2.1-51.5-0.2-23.7 0-43.5 0.4-44.2 0.5-0.7 7.8-2 18.3-3.2 9.6-1 18.1-1.7 18.8-1.5 0.9 0.3 1.2 9.6 1.2 41.9 0 39 0.1 41.8 2 47 1.4 4 2.9 6.1 5.3 7.5 1.9 1.2 5 2 7.5 2 2.3 0 5.7-0.6 7.5-1.3 1.7-0.7 4.3-2.9 5.6-4.8 1.4-1.9 3.1-5.6 3.8-8.4 0.9-3.7 1.3-15.7 1.3-45.7 0-38.1 0.1-40.8 1.8-40.9 0.9-0.1 7.6-0.7 14.7-1.4 7.1-0.6 14.2-1.3 15.8-1.3zm-116.3 10.8v19.5c0 10.7-0.3 19.5-0.7 19.5-0.5 0-6.2 0.6-12.8 1.4-6.6 0.8-19.1 2.3-43.5 5.1v11.5l6.8-0.5c3.7-0.4 10.1-1 14.2-1.5 4.1-0.5 9.5-1.2 12-1.4 2.5-0.3 8-0.7 20-1.6v35l-8.2 0.9c-4.6 0.5-15.5 1.7-24.3 2.6-8.8 0.9-16.9 1.7-18 1.8-1.8 0.2-2 1-2.5 13.7l3.8-0.6c2-0.3 4.8-0.7 6.2-0.9 1.4-0.3 5.9-0.7 10-1 4.1-0.4 10.4-1 14-1.5 3.6-0.5 10.2-1.1 23-2l-0.5 39.4-9.5 1.2c-5.2 0.6-14.7 1.7-21 2.4-6.3 0.6-13.7 1.4-16.5 1.6-2.7 0.3-8.4 0.9-12.5 1.4-4.1 0.5-10.4 1.2-14 1.6-3.6 0.3-9.4 1-13 1.4-3.6 0.5-6.7 0.7-7 0.4-0.3-0.3-0.6-31-0.8-68.2-0.1-37.2 0-68.6 0.2-69.7 0.4-1.7 1.9-2.2 11.8-3.4 6.2-0.7 12.9-1.5 14.8-1.7 1.9-0.2 10-1.1 18-2 8-0.8 18.8-2.1 24-2.7 5.2-0.7 13.2-1.3 26-1.7zm-638.7 9.8l2.1 0.4c1.2 0.3 8.6 1.8 30.9 6.3l3.4 5.3c1.8 2.8 3.3 5.4 3.3 5.7 0 0.3 2 3.9 4.5 8 2.5 4.1 4.5 7.7 4.5 8 0 0.3 2.6 4.9 5.8 10.3 3.2 5.3 7.4 12.4 9.2 15.7 1.8 3.3 3.8 6.8 4.4 7.8 0.6 0.9 1.4 1.7 1.9 1.7 0.4 0 0.8-12.5 1.2-55.5l6 0.3c3.3 0.2 11.6 1.1 31 3.7l0.2 69.5c0.2 38.2-0.1 69.8-0.5 70.1-0.4 0.4-5.9 0-12.2-0.7-6.3-0.8-13.5-1.8-16-2.2-4.1-0.6-4.7-1.1-8.1-6.7-2-3.3-4.8-8.2-6.4-11-1.5-2.7-4.4-7.9-6.5-11.5-2.1-3.6-5.1-8.8-6.7-11.5-1.5-2.8-5.3-9.4-8.3-14.8-3-5.3-6.1-9.7-6.7-9.7-1 0-1.3 6.5-1.3 29 0 22.5-0.3 29-1.2 29-0.7 0-6.9-1.1-13.8-2.4-6.9-1.4-13.2-2.7-14-3-0.8-0.2-2.7-0.7-7-1.6zm527.7 1.6c1.3 0.1 1.5 6.1 1.5 47.1-0.1 45.6-0.1 47.3-2.3 56-1.3 5-3.8 11.9-5.5 15.5-1.8 3.5-5.4 8.9-8.2 11.9-2.7 3-7.7 7.2-11 9.3-3.3 2.2-8.7 4.8-12 5.8-3.3 1.1-9.8 2.5-14.5 3.1-6.3 0.8-10.4 0.8-16 0-4.1-0.6-9.7-2.2-12.5-3.4-2.7-1.2-7.2-4.3-9.9-6.7-2.7-2.5-5.9-6.2-7.2-8.2-1.3-2.1-3.5-7-4.8-11-1.3-4-2.9-11.3-3.5-16.3-0.6-5.2-1.1-26-1.1-50.2 0-22.7 0.4-41.5 0.8-41.7 0.4-0.2 6.3-0.9 13.2-1.5 6.9-0.6 15.1-1.4 23.9-2.6l0.3 43c0.3 42.2 0.4 43.1 2.6 47.8 1.5 3.1 3.3 5.3 5.5 6.4 2.1 1 5 1.5 8.4 1.2 3.1-0.2 6.2-1.2 8-2.5 1.5-1.1 3.9-4 7.8-10.9l0.8-88.1 14.1-1.7c7.8-0.9 15.5-1.9 17.1-2 1.7-0.2 3.7-0.3 4.5-0.3zm-176 13.8c1.4-0.1 5.9 0.5 10 1.2 4.1 0.8 10.2 2.7 13.5 4.2 4 2 8.7 5.6 14 10.9 5.5 5.6 9 10 11.2 14.5 1.7 3.6 3.8 8.6 4.6 11 0.9 2.5 2.3 8.6 3.1 13.5 0.9 5 1.6 10.8 1.6 13 0 2.2-0.7 8.1-1.5 13-0.8 5-2.3 11.5-3.2 14.5-0.9 3.1-2.5 7.3-5.5 13.5l4.4 4.1c2.4 2.3 4.9 4.8 5.6 5.8 1 1.4 0.1 3.3-6.5 13.2-4.3 6.3-8 11.5-8.3 11.5-0.3 0-3.1-2.7-12-12.1l-3.7 3.1c-2.1 1.7-6.9 4.6-10.8 6.5-3.8 1.9-9.9 3.9-13.5 4.5-3.6 0.6-9.6 0.8-13.5 0.5-3.8-0.3-9.2-1.3-12-2.2-2.7-0.9-7.5-3.2-10.5-5.1-3-1.9-6.8-4.7-8.4-6.1-1.5-1.5-4.5-4.9-6.6-7.7-2-2.7-4.9-7.3-6.3-10.2-1.5-2.9-3.4-7.4-4.3-10-0.9-2.6-2.2-8-3-12-0.8-4-1.4-11.2-1.4-16 0-4.8 0.7-12.4 1.5-16.8 0.9-4.4 2.5-10.4 3.6-13.5 1.1-3 3.7-8.6 5.7-12.5 2.5-4.7 6.4-9.8 12.2-15.6 6.6-6.7 10.2-9.4 16-12.2 4.1-2 10.7-4.2 14.5-5 3.9-0.8 8.1-1.5 9.5-1.5zm-14.5 48.8c-1.5 1.4-3.7 4.3-5 6.5-1.3 2.2-3 6.7-3.9 10-0.8 3.3-1.6 8.1-1.6 10.5 0 2.5 0.7 7 1.5 10 0.8 3.1 2.8 7.6 4.3 10 1.6 2.5 4.6 5.5 6.8 6.8 2.5 1.4 5.6 2.2 8.7 2.2 2.6 0 4.9-0.4 5.2-1 0.3-0.5-1.6-3.2-4.2-6-2.6-2.8-4.9-5.5-5-6-0.2-0.5 3-5.9 7-12 4.6-7 7.8-11 9-11 0.9 0 3.6 2.3 6 5.1 2.3 2.7 4.4 4.7 4.7 4.4 0.3-0.3 0.4-3.6 0.2-7.3-0.1-3.7-0.7-8.2-1.3-10.2-0.6-1.9-2.3-5.4-3.8-7.7-1.4-2.3-4.4-5.3-6.6-6.7-3-2-5.2-2.6-9-2.5-2.7 0.1-6.2 0.6-7.6 1.3-1.5 0.6-3.9 2.3-5.4 3.6zm-214.5-45l13.3 0.7c7.3 0.3 15.9 0.9 25.2 1.8l0.5 44.5c0.4 35.2 0.8 45.1 1.9 47 0.8 1.4 2.1 3.4 3 4.4 0.9 1 3 2.5 4.6 3.4 1.7 0.8 4.8 1.5 7 1.5 2.2 0 5.5-0.8 7.3-1.7 1.9-0.9 4.1-3.3 5.5-5.8 2.2-4.2 2.2-4.8 2.5-48 0.2-34.2 0.5-43.8 1.5-43.9 0.7 0 9.1 0 18.7 0.1 12 0.2 17.7 0.6 18.3 1.4 0.4 0.6 0.7 17.8 0.7 38.1 0 25.6-0.5 41.1-1.4 50-0.8 7.2-2.1 15.1-2.9 17.5-0.8 2.5-2.6 7-4 10-1.4 3.1-5 8-8 11-3 3.1-8.2 6.9-11.8 8.7-3.5 1.8-8.9 3.8-11.9 4.4-3.4 0.7-9.7 1-16.5 0.7-7-0.4-13-1.3-16.5-2.5-3-1.1-8-3.5-11-5.4-3-2-7.7-6-10.3-8.9-2.7-3-6.1-8.2-7.6-11.5-1.5-3.3-3.5-8.7-4.4-12-0.9-3.3-2.1-9.8-2.6-14.5-0.6-4.6-1.1-27-1.1-49.7z"/>
</svg>